<svg width="18" height="19" viewBox="0 0 18 19" fill="none" xmlns="http://www.w3.org/2000/svg">
    <path d="M5.66669 2.41663C5.66669 2.08511 5.79838 1.76716 6.0328 1.53274C6.26722 1.29832 6.58517 1.16663 6.91669 1.16663H11.0834C11.4149 1.16663 11.7328 1.29832 11.9672 1.53274C12.2017 1.76716 12.3334 2.08511 12.3334 2.41663V3.24996C12.3334 3.58148 12.2017 3.89942 11.9672 4.13384C11.7328 4.36826 11.4149 4.49996 11.0834 4.49996H6.91669C6.58517 4.49996 6.26722 4.36826 6.0328 4.13384C5.79838 3.89942 5.66669 3.58148 5.66669 3.24996V2.41663Z"
          stroke="#808080" stroke-width="1.5"/>
    <path d="M11.5 10.3333H9M9 10.3333H6.5M9 10.3333V7.83329M9 10.3333V12.8333M16.5 12.8333C16.5 15.1908 16.5 16.3691 15.7675 17.1016C15.0358 17.8333 13.8567 17.8333 11.5 17.8333H6.5C4.14333 17.8333 2.96417 17.8333 2.2325 17.1016C1.5 16.3683 1.5 15.1908 1.5 12.8333V10.3333M12.3333 2.83496C14.1458 2.84496 15.1275 2.92579 15.7675 3.56579C16.5 4.29829 16.5 5.47663 16.5 7.83329V9.49996M5.66667 2.83496C3.85417 2.84496 2.8725 2.92579 2.2325 3.56579C1.59167 4.20579 1.51167 5.18746 1.50167 6.99996"
          stroke="#808080" stroke-width="1.5" stroke-linecap="round"/>
</svg>
