<svg width="14" height="18" viewBox="0 0 14 18" fill="none" xmlns="http://www.w3.org/2000/svg">
  <path fill-rule="evenodd" clip-rule="evenodd"
        d="M8.57501 1.79326C9.12488 1.25439 9.86521 0.954306 10.6351 0.958229C11.405 0.962152 12.1422 1.26976 12.6866 1.81421C13.2309 2.35866 13.5384 3.09595 13.5422 3.86583C13.546 4.63572 13.2457 5.37599 12.7068 5.92576L7.01126 11.6213C6.69026 11.9423 6.49376 12.1388 6.27626 12.309C6.01871 12.5097 5.74007 12.6817 5.44526 12.822C5.19476 12.9413 4.93151 13.029 4.50101 13.1723L2.49701 13.8405L2.01551 14.001C1.80428 14.0716 1.57756 14.0819 1.36079 14.0308C1.14401 13.9797 0.945769 13.8692 0.788288 13.7117C0.630808 13.5543 0.520322 13.356 0.469226 13.1392C0.418129 12.9225 0.428443 12.6957 0.499011 12.4845L1.32776 9.99901C1.47101 9.56851 1.55876 9.30526 1.67801 9.05476C1.81859 8.76017 1.99086 8.48177 2.19176 8.22451C2.36201 8.00626 2.55776 7.80976 2.87876 7.48951L8.57501 1.79326ZM2.47001 12.6638L1.83701 12.0293L2.38301 10.3905C2.54201 9.91351 2.60801 9.71926 2.69351 9.53926C2.79851 9.31801 2.92826 9.10951 3.07826 8.91676C3.20126 8.75926 3.34526 8.61376 3.70076 8.25751L8.11901 3.84001C8.34859 4.41357 8.69287 4.93421 9.13076 5.37001C9.56664 5.80763 10.0873 6.15166 10.6608 6.38101L6.24251 10.7985C5.88626 11.1548 5.74151 11.2988 5.58401 11.421C5.39093 11.5714 5.18223 11.7007 4.96151 11.8065C4.78151 11.892 4.58651 11.958 4.10951 12.117L2.47001 12.6638ZM11.557 5.48401C11.4415 5.45848 11.3275 5.42617 11.2158 5.38726C10.7298 5.21736 10.2887 4.93938 9.92576 4.57426C9.56077 4.21122 9.28281 3.77017 9.11276 3.28426C9.0736 3.17252 9.04105 3.05857 9.01526 2.94301L9.37001 2.58901C9.70883 2.26113 10.1629 2.07954 10.6344 2.08341C11.1059 2.08728 11.557 2.27629 11.8903 2.60968C12.2237 2.94307 12.4127 3.39414 12.4166 3.86561C12.4205 4.33709 12.2389 4.7912 11.911 5.13001L11.557 5.48401ZM0.437511 16.5C0.437511 16.3508 0.496775 16.2078 0.602264 16.1023C0.707753 15.9968 0.850827 15.9375 1.00001 15.9375H13V17.0625H1.00001C0.850827 17.0625 0.707753 17.0032 0.602264 16.8978C0.496775 16.7923 0.437511 16.6492 0.437511 16.5Z"
        fill="#fc6363" />
</svg>
