<svg width="18" height="18" viewBox="0 0 18 18" fill="none" xmlns="http://www.w3.org/2000/svg">
<path fill-rule="evenodd" clip-rule="evenodd" d="M10.575 1.79326C11.1249 1.25439 11.8652 0.954306 12.6351 0.958229C13.405 0.962152 14.1422 1.26976 14.6866 1.81421C15.2309 2.35866 15.5384 3.09595 15.5422 3.86583C15.546 4.63572 15.2457 5.37599 14.7068 5.92576L9.01126 11.6213C8.69026 11.9423 8.49376 12.1388 8.27626 12.309C8.01871 12.5097 7.74007 12.6817 7.44526 12.822C7.19476 12.9413 6.93151 13.029 6.50101 13.1723L4.49701 13.8405L4.01551 14.001C3.80428 14.0716 3.57756 14.0819 3.36079 14.0308C3.14401 13.9797 2.94577 13.8692 2.78829 13.7117C2.63081 13.5543 2.52032 13.356 2.46923 13.1392C2.41813 12.9225 2.42844 12.6957 2.49901 12.4845L3.32776 9.99901C3.47101 9.56851 3.55876 9.30526 3.67801 9.05476C3.81859 8.76017 3.99086 8.48177 4.19176 8.22451C4.36201 8.00626 4.55776 7.80976 4.87876 7.48951L10.575 1.79326ZM4.47001 12.6638L3.83701 12.0293L4.38301 10.3905C4.54201 9.91351 4.60801 9.71926 4.69351 9.53926C4.79851 9.31801 4.92826 9.10951 5.07826 8.91676C5.20126 8.75926 5.34526 8.61376 5.70076 8.25751L10.119 3.84001C10.3486 4.41357 10.6929 4.93421 11.1308 5.37001C11.5666 5.80763 12.0873 6.15166 12.6608 6.38101L8.24251 10.7985C7.88626 11.1548 7.74151 11.2988 7.58401 11.421C7.39093 11.5714 7.18223 11.7007 6.96151 11.8065C6.78151 11.892 6.58651 11.958 6.10951 12.117L4.47001 12.6638ZM13.557 5.48401C13.4415 5.45848 13.3275 5.42617 13.2158 5.38726C12.7298 5.21736 12.2887 4.93938 11.9258 4.57426C11.5608 4.21122 11.2828 3.77017 11.1128 3.28426C11.0736 3.17252 11.041 3.05857 11.0153 2.94301L11.37 2.58901C11.7088 2.26113 12.1629 2.07954 12.6344 2.08341C13.1059 2.08728 13.557 2.27629 13.8903 2.60968C14.2237 2.94307 14.4127 3.39414 14.4166 3.86561C14.4205 4.33709 14.2389 4.7912 13.911 5.13001L13.557 5.48401ZM2.43751 16.5C2.43751 16.3508 2.49677 16.2078 2.60226 16.1023C2.70775 15.9968 2.85083 15.9375 3.00001 15.9375H15V17.0625H3.00001C2.85083 17.0625 2.70775 17.0032 2.60226 16.8978C2.49677 16.7923 2.43751 16.6492 2.43751 16.5Z" fill="black"/>
</svg>
