<svg width="20" height="21" viewBox="0 0 20 21" fill="none" xmlns="http://www.w3.org/2000/svg">
    <path d="M18.3334 10.5C18.3334 10.5 17.5059 11.2416 15.8509 11.9041L13.5109 12.8408C11.8559 13.5025 11.0275 13.8333 10 13.8333C8.97169 13.8333 8.14419 13.5025 6.48919 12.8408L4.15002 11.9041C2.49419 11.2425 1.66669 10.5 1.66669 10.5M1.66669 13.8333C1.66669 13.8333 2.49419 14.575 4.14919 15.2375L6.48919 16.1741C8.14419 16.8358 8.97252 17.1666 10 17.1666C10.795 17.1666 11.47 16.9691 12.5 16.5733M15.8509 15.2375C17.5059 14.5758 18.3334 13.8333 18.3334 13.8333M4.14919 5.76248C2.49419 6.42415 1.66669 6.75498 1.66669 7.16665C1.66669 7.57831 2.49419 7.90831 4.14919 8.57081L6.48919 9.50748C8.14419 10.1691 8.97252 10.5 10 10.5C11.0284 10.5 11.8559 10.1691 13.5109 9.50748L15.8509 8.57081C17.5059 7.90915 18.3334 7.57831 18.3334 7.16665C18.3334 6.75498 17.5059 6.42498 15.8509 5.76248L13.5109 4.82665C11.8559 4.16415 11.0275 3.83331 10 3.83331C9.20502 3.83331 8.53002 4.03081 7.50002 4.42665"
          stroke="#808080" stroke-width="1.5" stroke-linecap="round"/>
</svg>
