<svg width="20" height="19" viewBox="0 0 20 19" fill="none" xmlns="http://www.w3.org/2000/svg">
<path d="M11.6667 17.8334H8.33335C5.19085 17.8334 3.61919 17.8334 2.64335 16.8567C1.66669 15.8809 1.66669 14.3092 1.66669 11.1667V9.50004C1.66669 6.35754 1.66669 4.78587 2.64335 3.81004C3.61919 2.83337 5.19085 2.83337 8.33335 2.83337H11.6667C14.8092 2.83337 16.3809 2.83337 17.3567 3.81004C18.3334 4.78587 18.3334 6.35754 18.3334 9.50004V11.1667C18.3334 14.3092 18.3334 15.8809 17.3567 16.8567C16.8125 17.4017 16.0834 17.6425 15 17.7484M5.83335 2.83337V1.58337M14.1667 2.83337V1.58337M17.9167 7.00004H8.95835M1.66669 7.00004H4.89585" stroke="#808080" stroke-width="1.5" stroke-linecap="round"/>
<path d="M15 13.6667C15 13.8877 14.9122 14.0996 14.7559 14.2559C14.5996 14.4122 14.3877 14.5 14.1667 14.5C13.9457 14.5 13.7337 14.4122 13.5774 14.2559C13.4211 14.0996 13.3333 13.8877 13.3333 13.6667C13.3333 13.4457 13.4211 13.2337 13.5774 13.0774C13.7337 12.9211 13.9457 12.8333 14.1667 12.8333C14.3877 12.8333 14.5996 12.9211 14.7559 13.0774C14.9122 13.2337 15 13.4457 15 13.6667ZM15 10.3333C15 10.5543 14.9122 10.7663 14.7559 10.9226C14.5996 11.0789 14.3877 11.1667 14.1667 11.1667C13.9457 11.1667 13.7337 11.0789 13.5774 10.9226C13.4211 10.7663 13.3333 10.5543 13.3333 10.3333C13.3333 10.1123 13.4211 9.90036 13.5774 9.74408C13.7337 9.5878 13.9457 9.5 14.1667 9.5C14.3877 9.5 14.5996 9.5878 14.7559 9.74408C14.9122 9.90036 15 10.1123 15 10.3333ZM10.8333 13.6667C10.8333 13.8877 10.7455 14.0996 10.5893 14.2559C10.433 14.4122 10.221 14.5 10 14.5C9.77899 14.5 9.56702 14.4122 9.41074 14.2559C9.25446 14.0996 9.16667 13.8877 9.16667 13.6667C9.16667 13.4457 9.25446 13.2337 9.41074 13.0774C9.56702 12.9211 9.77899 12.8333 10 12.8333C10.221 12.8333 10.433 12.9211 10.5893 13.0774C10.7455 13.2337 10.8333 13.4457 10.8333 13.6667ZM10.8333 10.3333C10.8333 10.5543 10.7455 10.7663 10.5893 10.9226C10.433 11.0789 10.221 11.1667 10 11.1667C9.77899 11.1667 9.56702 11.0789 9.41074 10.9226C9.25446 10.7663 9.16667 10.5543 9.16667 10.3333C9.16667 10.1123 9.25446 9.90036 9.41074 9.74408C9.56702 9.5878 9.77899 9.5 10 9.5C10.221 9.5 10.433 9.5878 10.5893 9.74408C10.7455 9.90036 10.8333 10.1123 10.8333 10.3333ZM6.66667 13.6667C6.66667 13.8877 6.57887 14.0996 6.42259 14.2559C6.26631 14.4122 6.05435 14.5 5.83333 14.5C5.61232 14.5 5.40036 14.4122 5.24408 14.2559C5.0878 14.0996 5 13.8877 5 13.6667C5 13.4457 5.0878 13.2337 5.24408 13.0774C5.40036 12.9211 5.61232 12.8333 5.83333 12.8333C6.05435 12.8333 6.26631 12.9211 6.42259 13.0774C6.57887 13.2337 6.66667 13.4457 6.66667 13.6667ZM6.66667 10.3333C6.66667 10.5543 6.57887 10.7663 6.42259 10.9226C6.26631 11.0789 6.05435 11.1667 5.83333 11.1667C5.61232 11.1667 5.40036 11.0789 5.24408 10.9226C5.0878 10.7663 5 10.5543 5 10.3333C5 10.1123 5.0878 9.90036 5.24408 9.74408C5.40036 9.5878 5.61232 9.5 5.83333 9.5C6.05435 9.5 6.26631 9.5878 6.42259 9.74408C6.57887 9.90036 6.66667 10.1123 6.66667 10.3333Z" fill="#808080"/>
</svg>
