<svg width="23" height="13" viewBox="0 0 23 13" fill="none" xmlns="http://www.w3.org/2000/svg">
    <path fill-rule="evenodd" clip-rule="evenodd"
          d="M0.302094 1.29163C0.302094 1.08443 0.384404 0.885712 0.530916 0.739199C0.677429 0.592686 0.876143 0.510376 1.08334 0.510376H9.41668C9.62388 0.510376 9.82259 0.592686 9.9691 0.739199C10.1156 0.885712 10.1979 1.08443 10.1979 1.29163C10.1979 1.49883 10.1156 1.69754 9.9691 1.84405C9.82259 1.99057 9.62388 2.07288 9.41668 2.07288H1.08334C0.876143 2.07288 0.677429 1.99057 0.530916 1.84405C0.384404 1.69754 0.302094 1.49883 0.302094 1.29163ZM16.7083 2.07288C16.127 2.07288 15.5513 2.18739 15.0142 2.40987C14.4771 2.63235 13.989 2.95845 13.5779 3.36954C13.1668 3.78063 12.8407 4.26867 12.6183 4.80579C12.3958 5.34291 12.2813 5.91859 12.2813 6.49996C12.2813 7.08133 12.3958 7.65701 12.6183 8.19413C12.8407 8.73125 13.1668 9.21929 13.5779 9.63038C13.989 10.0415 14.4771 10.3676 15.0142 10.5901C15.5513 10.8125 16.127 10.927 16.7083 10.927C17.8825 10.927 19.0085 10.4606 19.8388 9.63038C20.669 8.80014 21.1354 7.6741 21.1354 6.49996C21.1354 5.32582 20.669 4.19978 19.8388 3.36954C19.0085 2.5393 17.8825 2.07288 16.7083 2.07288ZM10.7188 6.49996C10.7188 5.7134 10.8737 4.93454 11.1747 4.20785C11.4757 3.48116 11.9169 2.82087 12.4731 2.26468C13.0293 1.7085 13.6895 1.26731 14.4162 0.966306C15.1429 0.665301 15.9218 0.510376 16.7083 0.510376C17.4949 0.510376 18.2738 0.665301 19.0005 0.966306C19.7271 1.26731 20.3874 1.7085 20.9436 2.26468C21.4998 2.82087 21.941 3.48116 22.242 4.20785C22.543 4.93454 22.6979 5.7134 22.6979 6.49996C22.6979 8.0885 22.0669 9.61197 20.9436 10.7352C19.8204 11.8585 18.2969 12.4895 16.7083 12.4895C15.1198 12.4895 13.5963 11.8585 12.4731 10.7352C11.3498 9.61197 10.7188 8.0885 10.7188 6.49996ZM16.7083 3.63538C16.9155 3.63538 17.1143 3.71769 17.2608 3.8642C17.4073 4.01071 17.4896 4.20943 17.4896 4.41663V6.04788L18.3406 7.03017C18.4078 7.10773 18.459 7.19776 18.4914 7.29512C18.5238 7.39248 18.5367 7.49527 18.5293 7.59761C18.522 7.69994 18.4945 7.79983 18.4486 7.89157C18.4026 7.9833 18.339 8.06509 18.2615 8.13225C18.1839 8.19942 18.0939 8.25065 17.9965 8.28302C17.8992 8.31539 17.7964 8.32827 17.694 8.32092C17.5917 8.31357 17.4918 8.28613 17.4001 8.24018C17.3083 8.19422 17.2266 8.13065 17.1594 8.05308L16.1177 6.851C15.995 6.70925 15.9273 6.52809 15.9271 6.34058V4.41663C15.9271 4.20943 16.0094 4.01071 16.1559 3.8642C16.3024 3.71769 16.5011 3.63538 16.7083 3.63538ZM0.302094 6.49996C0.302094 6.29276 0.384404 6.09405 0.530916 5.94753C0.677429 5.80102 0.876143 5.71871 1.08334 5.71871H7.33334C7.54054 5.71871 7.73926 5.80102 7.88577 5.94753C8.03228 6.09405 8.11459 6.29276 8.11459 6.49996C8.11459 6.70716 8.03228 6.90587 7.88577 7.05239C7.73926 7.1989 7.54054 7.28121 7.33334 7.28121H1.08334C0.876143 7.28121 0.677429 7.1989 0.530916 7.05239C0.384404 6.90587 0.302094 6.70716 0.302094 6.49996ZM0.302094 11.7083C0.302094 11.5011 0.384404 11.3024 0.530916 11.1559C0.677429 11.0094 0.876143 10.927 1.08334 10.927H9.41668C9.62388 10.927 9.82259 11.0094 9.9691 11.1559C10.1156 11.3024 10.1979 11.5011 10.1979 11.7083C10.1979 11.9155 10.1156 12.1142 9.9691 12.2607C9.82259 12.4072 9.62388 12.4895 9.41668 12.4895H1.08334C0.876143 12.4895 0.677429 12.4072 0.530916 12.2607C0.384404 12.1142 0.302094 11.9155 0.302094 11.7083Z"
          stroke="#808080"/>
</svg>
